<svg t="1725371427546" class="icon" viewBox="0 0 1025 1024" version="1.1" xmlns="http://www.w3.org/2000/svg" p-id="23124" width="200" height="200"><path d="M748.625228 438.362549c-4.127958-14.647594-15.180234-26.23251-29.694669-31.026268-9.054876-3.195839-18.642393-4.660598-28.363069-4.127959H335.962549c-7.190637-0.53264-14.248114-0.53264-21.438752 0-17.310793 3.062679-31.425748 15.846034-36.086346 32.890508-0.79896 5.725878-0.79896 11.584915 0 17.310793v215.985436c-1.06528 20.639792 11.851235 39.282185 31.558908 45.673862 6.258518 2.130559 12.916515 3.195839 19.574512 3.195838h371.116775c18.642393 0.6658 35.820026-9.986996 43.410143-26.898309 3.994798-9.587516 5.459558-19.840832 4.527439-30.094148V460.33394c1.06528-7.323797 1.06528-14.647594 0-21.971391z m-320.915475 155.264499c-9.454356 11.718075-23.968791 17.976593-38.882705 16.911314-14.913914-1.06528-28.363069-9.454356-35.953186-22.370872-4.793758-9.587516-6.791157-20.373472-5.992198-31.026268v-45.673862c3.195839-20.240312 19.441352-35.953186 39.681665-38.350065l2.796359 1.3316c11.451756-0.53264 22.637191 3.195839 31.558908 10.519636 9.853836 8.522237 15.712874 20.772952 15.979193 33.822626v45.673863c0.39948 10.386476-2.929519 20.772952-9.188036 29.162028z m239.687906-0.39948c-8.522237 12.383875-22.637191 19.840832-37.684265 19.840833s-29.162029-7.456957-37.684265-19.840833c-5.725878-9.720676-8.255917-21.172432-7.323797-32.357867v-45.673862c2.396879-20.906112 18.775553-37.551105 39.681664-40.214305l0.93212-0.399479c12.250715-0.93212 24.235111 3.195839 33.423147 11.185435 9.188036 8.122757 14.780754 19.441352 15.446554 31.692068v45.673862c0.79896 10.386476-1.597919 20.906112-6.791158 30.094148z" p-id="23125" fill="#868687"></path><path d="M512 0C229.16827 0 0 229.16827 0 512S229.16827 1024 512 1024 1024 794.83173 1024 512 794.83173 0 512 0z m317.453316 722.792198c-5.992198 26.63199-22.504031 49.668661-45.673862 63.916775-15.712874 9.720676-33.955787 14.780754-52.46502 14.647594H312.126918c-13.715475 0.6658-27.564109 0-41.146424-2.263719-26.23251-6.125358-49.002861-22.637191-62.984655-45.673862-10.120156-15.712874-15.446554-33.822627-15.579714-52.46502V441.158908c-1.19844-12.650195-1.19844-25.30039 0-37.950586 8.522237-44.608583 45.940182-77.89857 91.347724-81.227568H343.552666c-9.587516-6.791157-17.843433-15.047074-26.49883-22.370871-10.386476-9.587516-15.846034-23.436151-14.647594-37.417945 1.06528-14.913914 9.454356-28.496229 22.370871-36.086346 12.250715-5.725878 26.49883-5.725878 38.749545 0 8.788557 4.527438 16.778153 10.386476 23.702471 17.310793l91.347724 79.895969h65.248375l91.347724-79.895969c6.924317-6.924317 15.047074-12.783355 23.702471-17.310793 13.182835-4.660598 27.697269-3.062679 39.548504 4.261118 11.851235 7.323797 19.574512 19.707672 21.172432 33.689467 0.53264 11.052276-3.062679 21.971391-9.986996 30.626788-6.391678 6.391678-13.049675 12.517035-20.107152 18.242913-3.994798 3.728479-8.255917 7.323797-12.783355 10.519636h57.125617c25.43355 0.79896 49.535501 11.584915 67.112614 30.094148 18.642393 17.443953 29.561508 41.545904 30.626788 67.112614V683.110533c0.79896 13.315995 0 26.63199-2.130559 39.681665z" p-id="23126" fill="#868687"></path></svg>